<svg xmlns="http://www.w3.org/2000/svg"
     xmlns:xlink="http://www.w3.org/1999/xlink" version="1.1"
 xml:space="preserve">

    <path d="M44.86,33.516c2.941,0,5.566-1.306,7.378-3.35l5.641,0.012l-3.129-5.967v-0.416c0.001-0.059,0.007-0.117,0.007-0.176  c0-0.059-0.006-0.115-0.007-0.174v-3.17c0-5.172-5.052-13.242-9.32-14.887l-0.58-0.224L44.27,5.389  c-5.017,1.951-9.315,9.816-9.315,14.886v3.939l-3.104,5.964l5.631-0.012C39.293,32.21,41.919,33.516,44.86,33.516z M42.837,29.985  v-9.184c0-1.115,0.907-2.022,2.023-2.022c1.115,0,2.023,0.907,2.023,2.022v9.184c-0.639,0.205-1.317,0.321-2.023,0.321  C44.153,30.306,43.475,30.19,42.837,29.985z M38.164,24.999v-4.724c0-3.664,3.214-9.755,6.671-11.616  c2.798,1.655,6.704,7.754,6.704,11.616v4.727l1.025,1.954l-2.472-0.005v-6.15c0-2.885-2.347-5.232-5.233-5.232  s-5.233,2.347-5.233,5.232v6.15l-2.481,0.005L38.164,24.999z M57.421,46.673c0-1.559-0.299-3.046-0.822-4.423l-0.056-0.33  c1.176-0.902,1.948-2.307,1.948-3.901c0-2.72-2.213-4.933-4.933-4.933c-1.622,0-3.051,0.797-3.951,2.009  c-1.451-0.6-3.035-0.939-4.702-0.939c-1.667,0-3.251,0.339-4.702,0.939c-0.9-1.212-2.329-2.009-3.951-2.009  c-2.72,0-4.933,2.213-4.933,4.933c0,1.557,0.739,2.93,1.869,3.835l-0.145,0.856c-0.402,1.198-0.629,2.475-0.645,3.802L26.133,83.41  h9.258V95h8.459V83.41h2.018V95h8.459V83.41h9.258l-6.165-36.317V46.673z M53.558,36.296c0.95,0,1.723,0.773,1.723,1.723  s-0.773,1.723-1.723,1.723c-0.951,0-1.724-0.773-1.724-1.723S52.607,36.296,53.558,36.296z M41.17,38.159  c1.143-0.507,2.404-0.793,3.734-0.793c1.329,0,2.591,0.286,3.734,0.793c0.075,2.606,2.172,4.704,4.779,4.779  c0.507,1.143,0.793,2.405,0.793,3.735v9.364H35.599v-9.364c0-1.33,0.286-2.592,0.793-3.735  C38.998,42.863,41.096,40.765,41.17,38.159z M36.252,36.296c0.95,0,1.723,0.773,1.723,1.723s-0.773,1.723-1.723,1.723  c-0.95,0-1.723-0.773-1.723-1.723S35.301,36.296,36.252,36.296z M40.641,91.79h-2.04V76.188h2.04V91.79z M51.118,91.79h-2.04V76.188  h2.04V91.79z M33.338,72.978l1.998-13.731h19.044l2,13.731H33.338z M76.469,60.964v-7.401h-3.942V20.585  c0-1.765-1.609-5.843-3.554-6.593l-0.58-0.224l-0.58,0.225c-2.167,0.843-3.55,4.802-3.55,6.592v32.977h-4.34v7.401h6.079v4.502  c-1.096,0.761-1.818,2.025-1.818,3.458c0,2.322,1.889,4.211,4.211,4.211s4.211-1.889,4.211-4.211c0-1.432-0.722-2.696-1.817-3.457  v-4.503H76.469z M68.395,69.925c-0.552,0-1.001-0.449-1.001-1.001s0.449-1.001,1.001-1.001s1.001,0.449,1.001,1.001  S68.947,69.925,68.395,69.925z M67.474,20.585c0-0.67,0.434-1.907,0.881-2.752c0.486,0.892,0.962,2.162,0.962,2.752v32.977h-1.843  V20.585z M63.133,56.772h1.131h8.263h0.732v0.981H63.133V56.772z"/>
    <!--<text x="0" y="115" fill="#000000" font-size="5px" font-weight="bold" font-family="'Helvetica Neue', Helvetica, Arial-Unicode, Arial, Sans-serif">Created by Piotrek Chuchla</text><text x="0" y="120" fill="#000000" font-size="5px" font-weight="bold" font-family="'Helvetica Neue', Helvetica, Arial-Unicode, Arial, Sans-serif">from the Noun Project</text>-->
</svg>